<svg xmlns="http://www.w3.org/2000/svg" width="1200" height="630" viewBox="0 0 1200 630" font-family="DejaVu Sans, Arial, sans-serif">
  <defs>
    <linearGradient id="bg" x1="0" y1="0" x2="1" y2="1">
      <stop offset="0" stop-color="#0e151d"/>
      <stop offset="1" stop-color="#0a0f15"/>
    </linearGradient>
    <radialGradient id="glow" cx="0.82" cy="0.22" r="0.55">
      <stop offset="0" stop-color="#2dd4bf" stop-opacity="0.18"/>
      <stop offset="1" stop-color="#2dd4bf" stop-opacity="0"/>
    </radialGradient>
  </defs>

  <rect width="1200" height="630" fill="url(#bg)"/>
  <rect width="1200" height="630" fill="url(#glow)"/>
  <rect x="0" y="0" width="1200" height="8" fill="#2dd4bf"/>

  <!-- agent network motif (right) -->
  <g stroke="#60a5fa" stroke-width="2" opacity="0.5">
    <line x1="930" y1="170" x2="1080" y2="250"/>
    <line x1="1080" y1="250" x2="960" y2="380"/>
    <line x1="960" y1="380" x2="1090" y2="470"/>
    <line x1="930" y1="170" x2="960" y2="380"/>
    <line x1="1080" y1="250" x2="1090" y2="470"/>
  </g>
  <g>
    <circle cx="930" cy="170" r="13" fill="#2dd4bf"/>
    <circle cx="1080" cy="250" r="18" fill="#60a5fa"/>
    <circle cx="960" cy="380" r="15" fill="#2dd4bf"/>
    <circle cx="1090" cy="470" r="12" fill="#60a5fa"/>
  </g>

  <!-- text -->
  <text x="80" y="158" fill="#2dd4bf" font-size="26" font-weight="bold" letter-spacing="5">AI SYSTEMS BUILDER</text>
  <text x="78" y="278" fill="#e8edf2" font-size="82" font-weight="bold">Christeen Amburgey</text>
  <rect x="82" y="312" width="120" height="4" rx="2" fill="#2dd4bf"/>
  <text x="80" y="372" fill="#aebccb" font-size="38">Enterprise Automation  →  Agentic AI</text>
  <text x="80" y="438" fill="#7e8ea0" font-size="25">Multi-agent orchestration  ·  evidence-disciplined AI  ·  enterprise automation</text>

  <text x="80" y="566" fill="#2dd4bf" font-size="24" font-weight="bold">fevriergirl.github.io</text>
  <text x="80" y="566" fill="#7e8ea0" font-size="24" dx="270">·  “I build systems that build themselves.”</text>
</svg>
